<svg id="btn_color_check_48dp" xmlns="http://www.w3.org/2000/svg" xmlns:xlink="http://www.w3.org/1999/xlink" width="48" height="48" viewBox="0 0 48 48">
  <defs>
    <style>
      .cls-1 {
        fill: url(#linear-gradient);
      }

      .cls-2 {
        fill: #138bff;
        opacity: 0.2;
      }

      .cls-3 {
        fill: none;
      }
    </style>
    <linearGradient id="linear-gradient" y1="0.451" x2="0.966" y2="0.433" gradientUnits="objectBoundingBox">
      <stop offset="0" stop-color="#138bff"/>
      <stop offset="1" stop-color="#5edae3"/>
    </linearGradient>
  </defs>
  <g id="btn_color_udchecked" transform="translate(12 12)">
    <path id="제외_2" data-name="제외 2" class="cls-1" d="M1311-977a11.923,11.923,0,0,1-8.486-3.514A11.921,11.921,0,0,1,1299-989a11.921,11.921,0,0,1,3.515-8.485A11.923,11.923,0,0,1,1311-1001a11.921,11.921,0,0,1,8.485,3.514A11.921,11.921,0,0,1,1323-989a11.921,11.921,0,0,1-3.515,8.485A11.921,11.921,0,0,1,1311-977Zm0-22a10.011,10.011,0,0,0-10,10,10.011,10.011,0,0,0,10,10,10.011,10.011,0,0,0,10-10A10.011,10.011,0,0,0,1311-999Z" transform="translate(-1299 1001)"/>
    <circle id="타원_36" data-name="타원 36" class="cls-2" cx="10" cy="10" r="10" transform="translate(2 2)"/>
  </g>
  <g id="_48dp_Container" data-name="48dp / Container">
    <rect id="사각형_392" data-name="사각형 392" class="cls-3" width="48" height="48"/>
  </g>
</svg>
