<svg xmlns="http://www.w3.org/2000/svg" id="prefix__ic_notification" width="24" height="24" viewBox="0 0 24 24">
    <g id="prefix__Container">
        <path id="prefix__view-box" fill="none" d="M0 0H24V24H0z"/>
    </g>
    <path id="prefix__Shape" fill="#1a1919" d="M5.468 15.494v-.455H2.05A2.053 2.053 0 0 1 0 12.987v-.347a2.32 2.32 0 0 1 1.289-2.086 1.138 1.138 0 0 0 .629-.918l.407-4.476a5.674 5.674 0 0 1 11.3 0l.407 4.476a1.133 1.133 0 0 0 .625.916 2.323 2.323 0 0 1 1.293 2.088v.347a2.053 2.053 0 0 1-2.05 2.051h-3.419v.455a2.507 2.507 0 0 1-5.013 0zm1.367 0a1.139 1.139 0 0 0 2.279 0v-.455H6.836zM3.686 5.284L3.279 9.76A2.492 2.492 0 0 1 1.9 11.775a.961.961 0 0 0-.536.865v.347a.684.684 0 0 0 .683.684H13.9a.685.685 0 0 0 .684-.684v-.347a.961.961 0 0 0-.534-.864 2.5 2.5 0 0 1-1.38-2.016l-.407-4.476a4.307 4.307 0 0 0-8.578 0z" transform="translate(4 3)"/>
</svg>
