<svg id="ic_search_48dp" xmlns="http://www.w3.org/2000/svg" width="48" height="48" viewBox="0 0 48 48">
  <defs>
    <style>
      .cls-1 {
        fill: none;
      }

      .cls-2 {
        fill: #1a1919;
      }
    </style>
  </defs>
  <g id="_48dp_Container" data-name="48dp / Container">
    <rect id="사각형_392" data-name="사각형 392" class="cls-1" width="48" height="48"/>
  </g>
  <g id="ic_search" transform="translate(12 12)">
    <g id="Container">
      <rect id="view-box" class="cls-1" width="24" height="24"/>
    </g>
    <path id="Shape" class="cls-2" d="M-.213,17.787a.731.731,0,0,0,0-1.032L-5.47,11.5A7.021,7.021,0,0,0-3.892,7.054,7.062,7.062,0,0,0-10.946,0,7.062,7.062,0,0,0-18,7.054a7.062,7.062,0,0,0,7.054,7.054A7.021,7.021,0,0,0-6.5,12.53l5.257,5.257A.729.729,0,0,0-.729,18,.729.729,0,0,0-.213,17.787ZM-5.351,7.054a5.6,5.6,0,0,1-5.594,5.594A5.6,5.6,0,0,1-16.54,7.054,5.6,5.6,0,0,1-10.946,1.46,5.6,5.6,0,0,1-5.351,7.054Z" transform="translate(21 3)"/>
  </g>
</svg>
