<svg id="iv_logo" xmlns="http://www.w3.org/2000/svg" xmlns:xlink="http://www.w3.org/1999/xlink" width="58" height="54" viewBox="0 0 58 54">
  <defs>
    <style>
      .cls-1 {
        opacity: 0.5;
      }

      .cls-1, .cls-2, .cls-3 {
        fill: url(#linear-gradient);
      }

      .cls-3 {
        opacity: 0.18;
      }
    </style>
    <linearGradient id="linear-gradient" x1="0.5" x2="0.5" y2="1" gradientUnits="objectBoundingBox">
      <stop offset="0" stop-color="#138bff"/>
      <stop offset="1" stop-color="#5edae3"/>
    </linearGradient>
  </defs>
  <path id="패스_420" data-name="패스 420" class="cls-1" d="M158.241,77.909a2.154,2.154,0,0,0-2.981.7c-.643.986-.108,2.9,1.849,4.336a4.357,4.357,0,0,1,2.029,3.972.714.714,0,0,0,1.288.473,5.9,5.9,0,0,0,1.064-2.809C161.769,81.969,160.518,78.927,158.241,77.909Z" transform="translate(-125.268 -63.248)"/>
  <path id="패스_421" data-name="패스 421" class="cls-2" d="M151.574,98.758a1.972,1.972,0,1,1-1.972-1.971A1.972,1.972,0,0,1,151.574,98.758Z" transform="translate(-121.573 -72.824)"/>
  <path id="패스_422" data-name="패스 422" class="cls-3" d="M127.39,108.13a21.541,21.541,0,0,1-1.9,1.649c-.13.1-.266.205-.4.3-.251.182-.512.363-.782.54-.154.1-.317.2-.48.3-.186.117-.382.229-.577.34-.219.126-.443.243-.675.359-.084.047-.173.089-.261.131-.173.083-.35.167-.527.246-.074.037-.154.07-.233.1a18.721,18.721,0,0,1-2.283.825c-.07.023-.144.047-.219.065-.107.033-.219.061-.326.089-.163.046-.322.084-.484.126-.089.019-.182.042-.27.061-.14.033-.279.065-.419.093s-.3.066-.457.094a13.259,13.259,0,0,1-3.717.2q-.238-.021-.475-.056c-.051,0-.1-.014-.154-.023-.121-.014-.247-.033-.363-.056l-.228-.042c-.117-.023-.229-.046-.34-.074-.177-.042-.354-.089-.531-.131s-.364-.107-.54-.168-.354-.121-.526-.186c-.117-.047-.233-.089-.345-.14s-.229-.1-.344-.149a3.672,3.672,0,0,1-.368-.173c-.14-.065-.275-.135-.414-.209-.121-.065-.242-.131-.364-.2-.163-.093-.326-.191-.484-.294-.14-.083-.275-.172-.4-.26-.28-.186-.555-.382-.815-.587l-.009-.009c-3.024-2.809-2.5-7.4-2.5-7.4l0-.149a7.1,7.1,0,0,1,.546-.662,9.176,9.176,0,0,0,.515,3.812,3.985,3.985,0,0,0,3.033,2.46c2.18.391,4.756-.1,7.705-2.222C125.187,100.089,127.386,106.247,127.39,108.13Z" transform="translate(-99.778 -75.751)"/>
  <path id="패스_423" data-name="패스 423" class="cls-1" d="M141.541,103.6a55.138,55.138,0,0,1-5.139,7.151l0,0c-.41.448-.839.885-1.3,1.314-.172.159-.344.312-.527.47a20.915,20.915,0,0,1-1.989,1.518l-.322.21a20.145,20.145,0,0,1-1.961,1.108c-.117.056-.233.117-.35.168a21.234,21.234,0,0,1-2.348.95c-.112.037-.224.075-.34.112a27.433,27.433,0,0,1-4.351,1.021c-.238.037-.475.069-.717.1-.2.028-.406.051-.615.079-.289.032-.587.06-.89.088-.256.024-.517.047-.783.066a17.025,17.025,0,0,1-15.9-7.7c-2.809-4.319-2.437-6.625-.941-8.6l0,.149s-.527,4.6,2.506,7.412a12.573,12.573,0,0,0,10.417,2.553c12.1-2.311,12.816-11.829,19.548-12.43a5.689,5.689,0,0,1,3.987.927A5.388,5.388,0,0,1,141.541,103.6Z" transform="translate(-98.667 -74.053)"/>
  <path id="패스_424" data-name="패스 424" class="cls-2" d="M147.808,54.065a10.416,10.416,0,0,0-9.078-5.083A8.662,8.662,0,0,0,133,51.148c-.1.085-.2.174-.291.265s-.16.154-.237.234c-.039.042-.078.086-.116.129A9.393,9.393,0,0,0,130,57.908a13.747,13.747,0,0,0,.959,5.414c4.522,10.71,9.109,13.571,2.124,22.353-3.262,3.583-7.992,6.624-16.457,7.225a16.358,16.358,0,0,1-15.52-7.628c-4.224-6.46-.659-8.992,2.81-13.055,6.627-7.764-.639-16.461-5.058-11.441-3.484,3.958-3.565,9.164-3.39,14.555A29.444,29.444,0,0,0,97.406,84.2l.032.092h0a29.343,29.343,0,0,0,52.452,4.536C154.392,81.249,155.473,66.557,147.808,54.065Z" transform="translate(-95.42 -48.982)"/>
</svg>
