<svg xmlns="http://www.w3.org/2000/svg" xmlns:xlink="http://www.w3.org/1999/xlink" width="239.999" height="240" viewBox="0 0 239.999 240">
  <defs>
    <style>
      .cls-1 {
        fill: url(#linear-gradient);
      }
    </style>
    <linearGradient id="linear-gradient" y1="0.5" x2="1" y2="0.5" gradientUnits="objectBoundingBox">
      <stop offset="0" stop-color="#138bff"/>
      <stop offset="1" stop-color="#5edae3"/>
    </linearGradient>
  </defs>
  <path id="iv_main_oval" class="cls-1" d="M2640-3714a120.9,120.9,0,0,1-24.184-2.438,119.4,119.4,0,0,1-22.525-6.992,120,120,0,0,1-20.384-11.064,120.836,120.836,0,0,1-17.76-14.653,120.862,120.862,0,0,1-14.653-17.76,120,120,0,0,1-11.064-20.384,119.388,119.388,0,0,1-6.992-22.525A120.887,120.887,0,0,1,2520-3834a120.894,120.894,0,0,1,2.438-24.184,119.4,119.4,0,0,1,6.992-22.525,120,120,0,0,1,11.064-20.384,120.862,120.862,0,0,1,14.653-17.76,120.842,120.842,0,0,1,17.76-14.653,120,120,0,0,1,20.384-11.064,119.4,119.4,0,0,1,22.525-6.992A120.9,120.9,0,0,1,2640-3954a120.9,120.9,0,0,1,24.184,2.438,119.425,119.425,0,0,1,22.525,6.992,120.02,120.02,0,0,1,20.384,11.064,120.859,120.859,0,0,1,17.76,14.653,120.862,120.862,0,0,1,14.653,17.76,120.029,120.029,0,0,1,11.064,20.384,119.4,119.4,0,0,1,6.992,22.525A120.894,120.894,0,0,1,2760-3834a120.887,120.887,0,0,1-2.438,24.184,119.388,119.388,0,0,1-6.992,22.525,120.016,120.016,0,0,1-11.064,20.384,120.862,120.862,0,0,1-14.653,17.76,120.852,120.852,0,0,1-17.76,14.653,120.02,120.02,0,0,1-20.384,11.064,119.425,119.425,0,0,1-22.525,6.992A120.9,120.9,0,0,1,2640-3714Zm0-225a105.119,105.119,0,0,0-105,105,105.119,105.119,0,0,0,105,105,105.118,105.118,0,0,0,105-105A105.119,105.119,0,0,0,2640-3939Z" transform="translate(-2520 3954.001)"/>
</svg>
