<svg xmlns="http://www.w3.org/2000/svg" id="prefix__btn_color_check_48dp" width="48" height="48" viewBox="0 0 48 48">
    <defs>
        <linearGradient id="prefix__linear-gradient" x2=".966" y1=".451" y2=".433" gradientUnits="objectBoundingBox">
            <stop offset="0" stop-color="#138bff"/>
            <stop offset="1" stop-color="#5edae3"/>
        </linearGradient>
    </defs>
    <g id="prefix__btn_color_udchecked" transform="translate(12 12)">
        <path id="prefix__제외_2" d="M1311-977a11.923 11.923 0 0 1-8.486-3.514A11.921 11.921 0 0 1 1299-989a11.921 11.921 0 0 1 3.515-8.485A11.923 11.923 0 0 1 1311-1001a11.921 11.921 0 0 1 8.485 3.514A11.921 11.921 0 0 1 1323-989a11.921 11.921 0 0 1-3.515 8.485A11.921 11.921 0 0 1 1311-977zm0-22a10.011 10.011 0 0 0-10 10 10.011 10.011 0 0 0 10 10 10.011 10.011 0 0 0 10-10 10.011 10.011 0 0 0-10-10z" data-name="제외 2" transform="translate(-1299 1001)"/>
        <circle id="prefix__타원_36" cx="10" cy="10" r="10" data-name="타원 36" transform="translate(2 2)" style="fill:#138bff;opacity:.2"/>
    </g>
    <g id="prefix___48dp_Container" data-name="48dp / Container">
        <path id="prefix__사각형_392" d="M0 0H48V48H0z" data-name="사각형 392" style="fill:none"/>
    </g>
</svg>
