<svg xmlns="http://www.w3.org/2000/svg" width="24" height="24" viewBox="0 0 24 24">
    <defs>
        <linearGradient id="prefix__linear-gradient" x2="1" y1=".5" y2=".5" gradientUnits="objectBoundingBox">
            <stop offset="0" stop-color="#138bff"/>
            <stop offset="1" stop-color="#5edae3"/>
        </linearGradient>
    </defs>
    <g id="prefix__ic_add_picture" transform="translate(-217 -377) translate(217 377)">
        <path id="prefix__패스_434" d="M12 0A12 12 0 1 1 0 12 12 12 0 0 1 12 0z" data-name="패스 434"/>
        <g id="prefix__add">
            <g id="prefix__Container">
                <path id="prefix__view-box" d="M0 0H24V24H0z" style="fill:none"/>
            </g>
            <path id="prefix__Shape" d="M5 10.75V6.5H.75a.75.75 0 0 1 0-1.5H5V.75a.75.75 0 0 1 1.5 0V5h4.25a.75.75 0 1 1 0 1.5H6.5v4.25a.75.75 0 1 1-1.5 0z" transform="translate(6 6)" style="fill:#fff"/>
        </g>
    </g>
</svg>
